<?xml version="1.0" encoding="utf-8"?>
<!-- Generator: Adobe Illustrator 18.1.1, SVG Export Plug-In . SVG Version: 6.00 Build 0)  -->
<!DOCTYPE svg PUBLIC "-//W3C//DTD SVG 1.1//EN" "http://www.w3.org/Graphics/SVG/1.1/DTD/svg11.dtd">
<svg version="1.1" id="Layer_1" xmlns="http://www.w3.org/2000/svg" xmlns:xlink="http://www.w3.org/1999/xlink" x="0px" y="0px"
	 viewBox="0 0 800 800" enable-background="new 0 0 800 800" xml:space="preserve">
<g>
	<path d="M707.1,580.8c2,0.3,6.4-3.3,11.6-8.2c0.5,15.6,4.8,37.3,4.6,40.5c0.3-4.1,1.4-26.9,1.2-41.1c5.7,4.8,10.7,8.3,12.2,8
		c0.1-2-3.7-6.4-9-11.5c8.9-0.2,16.5-2.2,19.5-2.8c-2.1,0.4-10.1-2-19.6-2.2c5.2-5.6,9.8-11.1,9.9-13.6c-1.8,0.2-7.5,4.7-13.4,10.5
		c-0.6-13.8-3.2-24.2-3.5-27.1c-0.2-1.9-2.3,10.4-2.1,26.7c-5.7-4.9-11.1-9.2-13.7-9.1c0.2,1.8,5,7.3,10.8,12.9
		c-9.7,0.5-16.4,3-19.4,3.3c-2.4,0.2,10,2,19.7,1.8C710.8,574.3,706.9,579.3,707.1,580.8"/>
	<path d="M64,596c2,0.3,6.4-3.3,11.6-8.2c0.5,15.6,4.8,37.3,4.6,40.5c0.3-4.1,1.4-26.9,1.2-41.1c5.7,4.8,10.7,8.3,12.2,8
		c0.1-2-3.7-6.4-9-11.5c8.9-0.2,16.5-2.2,19.5-2.8c-2.1,0.4-10.1-2-19.6-2.2c5.2-5.6,9.8-11.1,9.9-13.6c-1.8,0.2-7.5,4.7-13.4,10.5
		c-0.6-13.8-3.2-24.2-3.5-27.1c-0.2-1.9-2.3,10.4-2.1,26.7c-5.7-4.9-11.1-9.2-13.7-9.1c0.2,1.8,5,7.3,10.8,12.9
		c-9.7,0.5-16.4,3-19.4,3.3c-2.4,0.2,10,2,19.7,1.8C67.7,589.4,63.9,594.5,64,596"/>
	<g>
		<g>
			<g>
				<path fill="#918D93" stroke="#000000" stroke-width="8.8908" stroke-miterlimit="10" d="M294.1,357.4
					c7.3,5.7,16.2,9.8,25.3,13.1c2.3,0.8,4.5,1.6,6.8,2.3c0.4,0.1,0.9,0.3,1.3,0.4c1.3,0.4,2.6,0.7,3.9,1.1
					c5.1,1.4,10.4,2.5,15.6,3.6c10.8,2.2,21.7,3.8,32.6,5.1c2.9,0.3,5.8,0.7,8.8,1c0.8,0.1,5.6,0.4,2.5,0.3c-3-0.1,1.1,0.1,1.9,0.2
					c5.5,0.5,11,0.9,16.5,1.3c10.1,0.7,20.2,1.2,30.3,1.5c7.9,0.3,15.8,0.5,23.7,0.7c3.3,0.1,6.7,0,10,0.2c0.4,0,0.8,0,1.2,0
					c1.8-0.1,3.7-0.1,5.5-0.2c3.6-0.2,7.1-0.4,10.7-0.7c1.3-0.1,2.6-0.2,3.9-0.3c0.8-0.1,1.6-0.2,2.5-0.2c3.8-0.4,7.5-0.8,11.2-1.3
					c2-0.3,4-0.5,6-0.8c0.3,0,0.6-0.1,0.8-0.1c3-0.5,6-1,9-1.6c1.8-0.3,3.5-0.7,5.2-1c2.7-0.7,5.4-1.4,8.1-2
					c0.4-0.1,0.9-0.3,1.3-0.4c1.1-0.4,2.3-0.8,3.4-1.1c0,0,0,0,0,0c1.1-0.4,2.2-0.9,3.2-1.4c0.9-0.4,1.8-0.8,2.7-1.1
					c-36.3-46.7-84.5-66-137.7-67.1c-44.6,0.9-85.8,14.6-119.3,46.6C292,355.7,292.9,356.4,294.1,357.4z"/>
			</g>
		</g>
	</g>
	<path d="M578.2,533.4c6.5-5.1,13.7-10.2,20.6-15.9c11.6-25.2,14-55,16.5-83.8c-0.1-0.6-0.1-1.2-0.2-1.7
		c-2.5-18-10.9-34.1-23.1-47.5c-7.3-8-16.3-13.5-27.4-12.1c-11.9,1.4-23.3,7.6-34.6,11.7c-2.4-4.5-6-8.6-11.6-7.6
		c-5.2,1-8.9,5.7-11.7,10.3c-0.3-0.5-0.7-0.9-1-1.4c-3.5,5.3-7.8,9.5-13.2,13.6c-0.9,0.7-1.9,1.2-3,1.4c-0.2,4.7,0.1,9.3,1,14
		c2.5,12.3,9.4,23.1,17.1,32.8c11.8,14.9,24.2,28.9,34.9,44.7c9.9,14.5,19.8,28.9,32.2,41.4C575.8,534.4,577.2,534.2,578.2,533.4z"
		/>
	<g>
		<g>
			<path d="M515.7,358.8c26.7-23.2,54.5-45.1,83.3-65.7c7.1-5,16.5-10.1,23.9-5.6c6.1,3.7,7.2,12,7.8,19.1
				c1.6,22.2,3.2,44.5,4.8,66.7c1.6,22.8,2.9,47.3-9.1,66.8c-1.4,2.2-3,4.4-5.3,5.6c-4.1,2.1-9,0.5-13.2-1.4
				c-29.8-13.1-54.4-35.6-76.4-59.6c-4.9-5.3-9.8-11.2-10.7-18.3c-0.9-7.1,4.5-15.4,11.7-14.7"/>
			<g>
				<path d="M517.4,360.5c22.7-19.7,46.2-38.6,70.5-56.4c8-5.9,28.1-24.7,36.9-11.3c3.3,5,3.2,11.9,3.7,17.7
					c0.6,7.9,1.1,15.7,1.7,23.6c1.1,14.8,2.2,29.5,3.2,44.3c0.9,13.5,1.4,27.2-1.4,40.5c-1.4,6.5-3.5,12.9-6.9,18.6
					c-1.9,3.3-4.1,6.7-8.4,6.8c-4.3,0.1-8.6-2.4-12.3-4.2c-11.9-5.7-23.1-13-33.4-21.1c-11.5-9-22.1-19.2-32.1-29.8
					c-4.9-5.2-10.5-10.4-13.7-16.8c-3.3-6.5-2.4-18.6,7.3-18.3c3.1,0.1,3.1-4.7,0-4.8c-12.6-0.3-16.5,14.6-12.1,24.2
					c2.9,6.4,8.1,11.6,12.8,16.7c5.6,6,11.3,11.8,17.2,17.4c11.4,10.7,23.6,20.6,36.9,28.7c6.7,4.1,13.7,8,21,10.9
					c5.5,2.2,11.6,3.2,16.3-1c5.2-4.5,8.1-12.4,10.1-18.8c2.3-7.3,3.4-15,3.9-22.7c1-17-1-34-2.2-50.9c-1.3-17.4-1.5-35.2-4-52.5
					c-0.8-5.6-2.6-11.5-7.3-15c-5.2-3.9-11.8-3.2-17.5-0.8c-8.4,3.5-15.7,9.8-23,15.2c-7.8,5.7-15.5,11.6-23.2,17.5
					c-16.2,12.6-32.1,25.6-47.6,39.1C511.7,359.1,515.1,362.5,517.4,360.5L517.4,360.5z"/>
			</g>
		</g>
		<path fill="#FD57B0" d="M600.4,448.4c5.9-11.2,7.1-20.9,8.8-33.9c2.2-16.5,2.9-33.2,3.1-49.9c0.1-13.9,0.2-28-0.5-42.1
			c-1.5-5.4-4.3-9.8-9.1-11.4c-23.2,20.1-46.9,39.6-70.1,59.6c-3.9,4.4-7.4,9.1-8.6,14.4c-1.7,7.2,6.4,14.7,12.6,17.2
			c0.7,0.3,1.4,0.1,2-0.4c10.7,10.5,22.8,22.8,35.5,34.7C577.4,446.8,590.5,451.3,600.4,448.4z M543.7,390.7
			c-2.6-3.4-4.4-6.9-3.4-10.6c0.3-1,0.8-2.1,1.4-3.1c-0.5,1.9,1.7,4,3.5,2.7c0.7-0.5,1.4-1.1,2.1-1.6c-0.4,1.2-0.8,2.4-1.2,3.6
			c-0.4,1.3,0.6,2.6,1.8,3C546.6,386.6,545.1,388.7,543.7,390.7z"/>
	</g>
	<path d="M306.9,389.4c-5.4-4.1-9.7-8.3-13.2-13.6c-0.3,0.5-0.7,0.9-1,1.4c-2.8-4.6-6.5-9.3-11.7-10.3c-5.6-1-9.2,3.1-11.6,7.6
		c-11.3-4.1-22.7-10.3-34.6-11.7c-11.1-1.3-20.1,4.2-27.4,12.1c-12.3,13.3-20.6,29.5-23.1,47.5c-1,7.3-1.1,14.6-0.8,21.9
		c0,0.9,0,2.4-0.1,4c-1.2-2.1-2.6-4-4.8-5.5c-0.4-0.3-0.9-0.4-1.3-0.3c-2.2-4.8-3.9-9.7-4.9-15c-0.6-3-5.2-1.7-4.6,1.3
		c1.6,8.6,5.2,16.2,9.3,23.6c0,0.2,0.1,0.3,0.2,0.5c0.1,0.2,0.3,0.5,0.4,0.7c3.2,5.8,6.6,11.6,9.3,17.7c-3.6-1.3-7.2-2.5-10.5-4.3
		c-1.9-1.1-4,0.7-3.5,2.7c5.4,24.5,29.9,39.7,48.3,54.1c1,0.8,2.4,1,3.4,0c12.4-12.5,22.3-26.9,32.2-41.4
		c10.8-15.8,23.1-29.8,34.9-44.7c7.7-9.7,14.6-20.4,17.1-32.8c0.9-4.7,1.2-9.4,1-14C308.8,390.6,307.8,390.2,306.9,389.4z"/>
	<g>
		<g>
			<path d="M289.4,367.1c-26.7-23.2-54.5-45.1-83.3-65.7c-7.1-5-16.5-10.1-23.9-5.6c-6.1,3.7-7.2,12-7.8,19.1
				c-1.6,22.2-3.2,44.5-4.8,66.7c-1.6,22.8-2.9,47.3,9.1,66.8c1.4,2.2,3,4.4,5.3,5.6c4.1,2.1,9,0.5,13.2-1.4
				c19.6-8.7,37.1-21.5,52.9-35.9c9.7-8.9,33-22.3,38.9-33c0,0,0,0,0,0c-2.5-6.3-8.3-24.6-16.4-23.8"/>
		</g>
		<path fill="#C5D82E" d="M268.3,408.6c-16.5-22.8-33.4-47-51.2-70.4c-3.8-5-12.1-10.9-16.5-9.7c-5,1.3-10.5,9.9-11.3,15.9
			c-1.8,13.4-2.6,27.5-0.5,40.7c2.9,18.1,8,36,13.7,53.4c4.9,15.1,16.6,17.7,28,7.1C244,432.9,257.1,419.6,268.3,408.6z"/>
	</g>
	<g>
		<path d="M601.1,496.1c-14.2-10.8-14.8-13.3-6-25.3c-8.7-2.2-19.9-3.1-10.8-16.7c0.8-1.1-4-6.9-7.1-9.5
			c-8.1-6.8-16.7-12.9-25.1-19.3c-3.8-2.9-5.3-5.8-5.2-9.2c-0.2-0.1-0.4-0.2-0.5-0.4c-7.2-7.7-14.7-15.5-22.5-23.2
			c-17.1-8.7-34-17.8-50.5-27.5c-10.8-6.4-21.8-13-32.2-20.4c-4.2,0.8-8.8,1.2-12.6,1.5c-19.5,1.3-39.1,1.1-58.6,1
			c-1.9,0-4.1-0.4-6.2-1c-6.1,2.9-12.3,5.5-18.7,8c-7.8,3.1-15.4,6-22.8,9.3c-12.5,8.2-25.7,16.9-39.1,25.6c0.4,0.2,0.4,0.4,0.1,0.6
			c-3,2.6-6.6,4.6-9.6,7.2c-1.4,1.2-3.7,1.8-6,2.1c-2.8,1.6-5.6,3.3-8.4,5.1c-0.8,0.5-1.6,0.9-2.6,1.2c2.1,4.6,2.5,9.4-3.4,14.8
			c-7.3,6.7-15.4,12.6-23.4,18.4c-3.3,2.4-7.4,3.9-12.6,6.5c2.1,4.3,6.9,10.9,5.7,12.3c-7.5,8.8-10.2,19-12,29.9
			c-0.2,1.4-5,2-9.9,3.8c4.5,9.2,8.9,18.2,13.8,28.2h-15.6c11.4,11.5,22.3,23.4,34.2,34.1c6.5,5.8,15,9.3,22.1,14.5
			c3.4,2.5,5.2,7.3,8.7,9.7c21.4,14.9,45.7,17.4,70.8,16.1c8.2-0.4,16.5-0.1,25.4-0.1c0.6,6.3,1.2,12.4,1.8,18.5h17.7
			c-1.6-7.5-4.2-14.9-4.6-22.5c-0.9-13.7-3.2-16.1-16.9-14.8c-12.2,1.1-24.4,1.1-34.5-7.6c-15.2-12.9-12.4-28.8,6.5-35.6
			c4.7-1.7,9.8-3.2,14.7-3c23.8,1.1,30.1-6.8,37.1-32c4-14.5,14.5-12.1,23.5-13.3c9.3-1.2,12.3,6.3,14.5,14c2,6.7,4.9,13.2,7.3,19.8
			l0.3,3c9.3,8.8,20.7,10.7,33.1,11.6c12.5,0.9,24.7,4.4,26.5,20.4c0.1,1.1,2.5,2,3.9,3c-2.4,1.8-5.5,3-7,5.3
			c-7.2,10.8-16.7,15.3-29.7,13.5c-5.3-0.7-10.8,0.3-16.2,0.3c-11.6,0.1-14.4,6.8-14.8,17.2c-0.3,7-3.7,13.8-5.7,20.7h15.2
			c6.6-15.7,11.5-17.9,28.9-17.8c20.7,0.2,42,2.8,63.1-8.8c-2.9-2-5-3.5-9.2-6.5c17.1,6.1,29.7,1.3,28-8.9c13.1,2.4,19.9-7,27-15
			c9.2-10.3,17.7-21.1,26.6-31.8h-13.5C590.3,513.4,595.7,504.7,601.1,496.1z M340.3,508.9c-8.4,3.7-18.5,3.8-30.3,6
			c-9.2-2.3-20.5-3.7-30.6-8c-16.6-7.1-21.8-26.6-16.7-44.1c5.4-18.6,15.9-31.5,32.8-39.9c32.2-16,65.3,3.2,66.9,38.9
			C363.3,481.4,360.7,500,340.3,508.9z"/>
		<path fill="#FFFFFF" d="M380.1,612.2c-1.6-7.5-4.2-14.9-4.6-22.5c-0.9-13.7-3.2-16.1-16.9-14.8c-12.2,1.1-24.4,1.1-34.5-7.6
			c-15.2-12.9-12.4-28.8,6.5-35.6c4.7-1.7,9.8-3.2,14.7-3c23.8,1.1,30.1-6.8,37.1-32c4-14.5,14.5-12.1,23.5-13.3
			c9.3-1.2,12.3,6.3,14.5,14c2,6.7,4.9,13.2,7.3,19.8c-10.3-6-21.2-7.4-33.1-6.2c-9.2,1-16.9,3.6-18.6,13.4
			c-1.7,10,3.4,15.1,13.6,17.1c2.6,0.5,3.7,8.4,5.5,12.9c-3.9,1.2-9.1,4.6-11.3,3.2c-6.2-3.8-11.2-9.6-16.8-14.6
			c-3.9-3.5-7.9-6.8-11.8-10.2c-2.6,5.7-7.3,11.3-7.4,17c-0.2,7.2,3.3,18.4,12.5,13.8c8.7-4.4,11.6,0.6,15.8,3.9
			c22.1,17.4,30,14.6,47.3,1.9c4.7-3.5,11.6-7.9,16.2-6.7c6.9,1.8,11.2,3.2,13.4-4.7c2.2-8.1,5.6-17.3-3.2-22.7
			c-2.1-1.3-10,4.6-13.7,8.6c-7.5,8.3-13.3,18.6-27.6,15.1c0-6.7,0-13.2,0-20.7c14.9,4.9,19.2-2,18.5-14.7c-0.1-1.2,0.6-2.4,0.9-3.7
			c9.3,8.8,20.7,10.7,33.1,11.6c12.5,0.9,24.7,4.4,26.5,20.4c0.1,1.1,2.5,2,3.9,3c-2.4,1.8-5.5,3-7,5.3
			c-7.2,10.8-16.7,15.3-29.7,13.5c-5.3-0.7-10.8,0.3-16.2,0.3c-11.6,0.1-14.4,6.8-14.8,17.2c-0.3,7-3.7,13.8-5.7,20.7
			C405.4,612.2,392.7,612.2,380.1,612.2z"/>
		<path fill="#FFFFFF" d="M457.5,489.6c1.8-0.3,4.9-1.8,6.5-0.9c5.3,3.1,11.1,6.2,15,10.8c8.5,9.9,18.9,6.9,27.5,3
			c7.9-3.6,15.8-10.3,20.3-17.7c8.4-13.7-12.2-47.1-32.9-51.3c-17.9-3.6-18.7-3.3-24.2,14.5c-9.7-9.1-11.4,0.9-11.9,6.3
			C456.8,466.1,457.5,477.9,457.5,489.6z"/>
	</g>
	<g>
		<g>
			<g>
				<path fill="#C5D82E" d="M405,398.6l-0.5-305.1c-0.1-15.1,12-27.4,27.1-27.5c15.1-0.1,27.4,12,27.5,27.1
					c0.1,15.1-12,27.4-27.1,27.5c-0.1,0-0.2,0-0.3,0l0.5,279.1c0.4,0,0.8,0,1.1,0c1.7,0,3.4-0.1,5.2-0.2l-0.4-273.7
					c15.5-2.9,27.2-16.5,27-32.8c-0.1-18.3-15.1-33-33.3-32.9c-18.3,0.1-33,15.1-32.9,33.3l0.5,304.5
					C401.1,398.2,403,398.4,405,398.6z"/>
				<path fill="#C5D82E" d="M434.1,93.3c0,1.3-1,2.3-2.3,2.4c-1.3,0-2.3-1-2.4-2.3c0-1.3,1-2.3,2.3-2.4
					C433,90.9,434.1,92,434.1,93.3z"/>
				<path fill="#C5D82E" d="M418.9,102.6l0.5,296.8c2,0.1,4.1,0.1,6.1,0.2L425,114c0,0,0,0,0,0l0-6.3c0,0,0,0,0,0l0-3.4c0,0,0,0,0,0
					l-0.1-10.9l0,0c0-3.9,3.1-7,6.9-7.1c3.8,0,6.9,3.1,7,7c0,3.9-3.1,7-6.9,7.1c-0.2,0-0.4,0-0.6,0l0,5.9c0.2,0,0.3,0,0.5,0
					c7.1,0,12.8-5.9,12.8-13c0-7.1-5.9-12.8-13-12.8c-6.9,0-12.5,5.5-12.8,12.3C418.8,93.9,418.8,101.1,418.9,102.6
					C418.9,102.6,418.9,102.6,418.9,102.6z"/>
				<path fill="#C5D82E" d="M413.5,399.1c0.9,0.1,1.9,0.1,2.9,0.1l-0.5-305.6c0-0.1,0-0.2,0-0.3c-0.1-8.8,7-15.9,15.8-16
					c8.8-0.1,15.9,7,16,15.8c0.1,8.8-7,15.9-15.8,16c-0.2,0-0.3,0-0.5,0l0,5.9c0.2,0,0.3,0,0.5,0c12-0.1,21.7-9.9,21.6-21.9
					c-0.1-12-9.9-21.7-21.9-21.6c-12,0.1-21.7,9.9-21.6,21.9l0.5,305.5C411.5,399,412.5,399.1,413.5,399.1z"/>
			</g>
			<g>
				<path fill="#FF671B" d="M439.6,399.5L439.3,164c-0.1-9.8,7.8-17.8,17.7-17.9c9.8-0.1,17.8,7.8,17.9,17.7
					c0.1,9.8-7.8,17.8-17.7,17.9c-0.1,0-0.1,0-0.2,0l0.3,216.8c1.4-0.1,2.7-0.2,4.1-0.3l-0.2-213c10.1-1.9,17.7-10.8,17.6-21.4
					c-0.1-11.9-9.8-21.5-21.8-21.5c-11.9,0.1-21.5,9.8-21.5,21.8l0.3,235.6C437,399.6,438.3,399.5,439.6,399.5z"/>
				<path fill="#FF671B" d="M458.6,163.9c0,0.8-0.7,1.5-1.5,1.5c-0.8,0-1.5-0.7-1.5-1.5c0-0.8,0.7-1.5,1.5-1.5
					C457.9,162.4,458.6,163,458.6,163.9z"/>
				<path fill="#FF671B" d="M448.6,170l0.3,229c1.3-0.1,2.7-0.1,4-0.2l-0.3-221.4c0,0,0,0,0,0l0-4.1c0,0,0,0,0,0l0-2.2c0,0,0,0,0,0
					l0-7.1c0-2.5,2-4.6,4.5-4.6c2.5,0,4.5,2,4.5,4.5c0,2.5-2,4.6-4.5,4.6c-0.1,0-0.3,0-0.4,0l0,3.8c0.1,0,0.2,0,0.3,0
					c4.6,0,8.4-3.8,8.3-8.5c0-4.6-3.8-8.4-8.5-8.3c-4.5,0-8.2,3.6-8.3,8C448.6,164.3,448.6,169,448.6,170
					C448.6,170,448.6,170,448.6,170z"/>
				<path fill="#FF671B" d="M447,399.1l-0.3-234.9c0-0.1,0-0.1,0-0.2c0-5.7,4.6-10.4,10.3-10.4c5.7,0,10.4,4.6,10.4,10.3
					c0,5.7-4.6,10.4-10.3,10.4c-0.1,0-0.2,0-0.3,0l0,3.8c0.1,0,0.2,0,0.3,0c7.8-0.1,14.1-6.4,14.1-14.3c-0.1-7.8-6.4-14.1-14.3-14.1
					c-7.8,0.1-14.1,6.4-14.1,14.3l0.3,235.4C444.4,399.3,445.7,399.2,447,399.1z"/>
			</g>
			<g>
				<path fill="#33D3D3" d="M372.2,132.4l0.3,260.9c0.1,0,0.1,0,0.2,0c1.4,0.3,2.8,0.6,4.2,0.9l-0.3-265.7c-0.1,0-0.2,0-0.2,0
					c-10.7,0.1-19.5-8.6-19.6-19.3c-0.1-10.7,8.6-19.5,19.3-19.6c10.7-0.1,19.5,8.6,19.6,19.3l0.4,288.6c1.4,0.2,2.8,0.3,4.2,0.5
					L399.8,109C399.7,96,389,85.5,376,85.6c-13,0.1-23.5,10.7-23.4,23.7C352.7,121,361.1,130.6,372.2,132.4z"/>
				<path fill="#33D3D3" d="M374.5,109.2c0,0.9,0.8,1.7,1.7,1.7c0.9,0,1.7-0.8,1.7-1.7c0-0.9-0.8-1.7-1.7-1.7
					C375.2,107.5,374.5,108.3,374.5,109.2z"/>
				<path fill="#33D3D3" d="M376.2,118.4c0.1,0,0.2,0,0.3,0l0-4.2c-0.1,0-0.3,0-0.4,0c-2.7,0-4.9-2.2-5-5c0-2.8,2.2-5,4.9-5
					c2.7,0,4.9,2.2,5,5l0,0l0.1,7.8c0,0,0,0,0,0l0,2.5c0,0,0,0,0,0l0,4.5c0,0,0,0,0,0l0.3,271.4c1.5,0.3,2.9,0.6,4.3,0.8l-0.4-280.4
					c0,0,0,0,0,0c0-1.1,0-6.2-0.1-7c-0.3-4.8-4.3-8.7-9.2-8.7c-5.1,0-9.2,4.2-9.1,9.2C367,114.3,371.2,118.4,376.2,118.4z"/>
				<path fill="#33D3D3" d="M376.3,124.7c0.1,0,0.2,0,0.3,0l0-4.2c-0.1,0-0.2,0-0.3,0c-6.2,0-11.3-5-11.4-11.2
					c0-6.2,5-11.4,11.2-11.4c6.2,0,11.4,5,11.4,11.2c0,0.1,0,0.2,0,0.2l0.4,287.1c1.4,0.2,2.8,0.5,4.2,0.7l-0.4-288
					c-0.1-8.6-7-15.4-15.6-15.4c-8.6,0.1-15.4,7-15.4,15.6C360.7,117.9,367.7,124.7,376.3,124.7z"/>
			</g>
			<g>
				<path fill="#FD57B0" d="M334.4,208.8l0.3,172.3c2,0.9,4.1,1.7,6.2,2.5l-0.3-180.2c-0.1,0-0.2,0-0.3,0
					c-15.1,0.1-27.4-12-27.5-27.1c-0.1-15.1,12-27.3,27.1-27.5c15.1-0.1,27.3,12,27.5,27.1l0.4,216.2c1.7,0.4,3.4,0.8,5.1,1.2
					c0.3,0.1,0.5,0.1,0.8,0.2l-0.4-217.6c-0.1-18.3-15.1-33-33.3-32.9c-18.3,0.1-33,15.1-32.9,33.3
					C307,192.7,318.8,206.2,334.4,208.8z"/>
				<path fill="#FD57B0" d="M337.7,176.2c0,1.3,1.1,2.3,2.4,2.3c1.3,0,2.3-1.1,2.3-2.4c0-1.3-1.1-2.3-2.4-2.3
					C338.7,173.8,337.6,174.9,337.7,176.2z"/>
				<path fill="#FD57B0" d="M340.1,189.1c0.2,0,0.3,0,0.5,0l0-5.9c-0.2,0-0.4,0-0.6,0c-3.8,0-6.9-3.1-7-7c0-3.9,3.1-7,6.9-7.1
					c3.8,0,6.9,3.1,7,7l0,0l0.1,10.9c0,0,0,0,0,0l0,3.4c0,0,0,0,0,0l0,6.3c0,0,0,0,0,0l0.3,189.3c2,0.7,4,1.4,6,2L353,185.3
					c0,0,0,0,0,0c0-1.6,0-8.7-0.1-9.9c-0.4-6.8-6.1-12.2-12.9-12.2c-7.1,0.1-12.8,5.9-12.8,13C327.2,183.4,333,189.1,340.1,189.1z"
					/>
				<path fill="#FD57B0" d="M340.1,197.9c0.2,0,0.3,0,0.5,0l0-5.9c-0.2,0-0.3,0-0.5,0c-8.8,0.1-15.9-7-16-15.8
					c-0.1-8.8,7-15.9,15.8-16c8.8-0.1,15.9,7,16,15.8c0,0.1,0,0.2,0,0.3l0.4,212.6c1.9,0.6,3.9,1.2,5.9,1.7L361.7,176
					c-0.1-12-9.9-21.7-21.9-21.6c-12,0.1-21.7,9.9-21.6,21.9C318.3,188.3,328.1,198,340.1,197.9z"/>
			</g>
			<g>
				<path fill="#F17C21" d="M462.9,398l-0.1-176.2c0-6.1,4.9-11.1,11-11.2c6.1,0,11.1,4.9,11.2,11c0,6.1-4.9,11.1-11,11.2
					c0,0-0.1,0-0.1,0l0.1,163.9c0.8-0.1,1.7-0.2,2.5-0.3l-0.1-161.4c6.3-1.2,11-6.7,11-13.3c-0.1-7.4-6.1-13.4-13.6-13.4
					c-7.4,0.1-13.4,6.1-13.4,13.6l0.1,176.4C461.3,398.1,462.1,398,462.9,398z"/>
				<path fill="#F17C21" d="M474.8,221.7c0,0.5-0.4,1-0.9,1c-0.5,0-1-0.4-1-0.9c0-0.5,0.4-1,0.9-1
					C474.4,220.7,474.8,221.2,474.8,221.7z"/>
				<path fill="#F17C21" d="M468.6,225.5l0.1,171.9c0,0,0,0,0,0c0.8-0.1,1.6-0.2,2.5-0.3l-0.1-166.9c0,0,0,0,0,0l0-2.6c0,0,0,0,0,0
					l0-1.4c0,0,0,0,0,0l0-4.4c0-1.6,1.2-2.9,2.8-2.9c1.6,0,2.8,1.3,2.8,2.8c0,1.6-1.2,2.9-2.8,2.9c-0.1,0-0.2,0-0.2,0l0,2.4
					c0.1,0,0.1,0,0.2,0c2.9,0,5.2-2.4,5.2-5.3c0-2.9-2.4-5.2-5.3-5.2c-2.8,0-5.1,2.2-5.2,5C468.6,221.9,468.6,224.8,468.6,225.5
					C468.6,225.5,468.6,225.5,468.6,225.5z"/>
				<path fill="#F17C21" d="M467.3,397.5c0.1,0,0.1,0,0.2,0l-0.1-175.6c0,0,0-0.1,0-0.1c0-3.6,2.9-6.5,6.4-6.5
					c3.6,0,6.5,2.9,6.5,6.4c0,3.6-2.9,6.5-6.4,6.5c-0.1,0-0.1,0-0.2,0l0,2.4c0.1,0,0.1,0,0.2,0c4.9,0,8.8-4,8.8-8.9
					c0-4.9-4-8.8-8.9-8.8c-4.9,0-8.8,4-8.8,8.9l0.1,175.9C466.2,397.5,467.1,397.4,467.3,397.5z"/>
			</g>
		</g>
	</g>
	<path d="M258.1,408.3c9.1,1,18.2,2.2,27.3,3.6c61.4,9.1,122,26.7,181.1,27.9c24.9,0.5,49.9-0.4,74.8,0.9c0,0,0,0,0,0
		c2.6-0.5,5.2-1.1,7.9-1.7c2.8-0.8,5.5-1.6,8.3-2.4c0.9-0.3,1.8-0.6,2.7-1c2.4-0.9,4.8-1.9,7.2-2.8c1.1-0.5,2.2-1,3.3-1.5
		c2.5-1.2,5-2.5,7.5-3.8c5.6-2.9,11.7-5.2,18-7c-29.2-46.7-64.9-76.7-104.5-93.5c-13.7,8.5-45,14.4-81.6,14.4
		c-36.5,0-67.8-5.9-81.5-14.3c-34.4,14.5-65.8,38.9-92.6,75.5C243.4,404.5,250.7,406.4,258.1,408.3z"/>
	<path d="M626,469.8c0.4-1.9-1.6-3.9-3.5-2.7c-3.9,2.5-7.9,4.7-12.1,6.7c5.9-16.6,13.1-32.3,7.8-50.3c-0.5-1.6-2.8-2.6-4-1.1
		c-16.6,21.3-22.3,48.3-34.4,72.1c-10.2,19.8-29.4,37.8-31.5,60.9c-0.1,1,0.8,2.1,1.8,2.3c3.8,0.7,7.5,0.9,10.9,0.4
		c-3.2,1.5-6.5,3-9.9,4.3c-2.8,1.1-1.6,5.8,1.3,4.6c24.7-9.7,46.4-25,59-48.9c0.8-1.5-0.1-3.8-2.1-3.6c-3.9,0.4-7.7,1.4-11.4,2.6
		C610.9,504.3,622.7,486.9,626,469.8z"/>
	<path d="M598.5,397.5c-1.2-2-4.5-1.2-4.5,1.2c0.1,3.3,0.1,6.7,0.1,10c-6.3-13.8-11.7-27.9-22-39.3c-1.1-1.3-3.7-0.7-4,1.1
		c-0.8,4.9-1,9.9-2,14.7c-5.6-7-9.9-15-16.5-21.2c-7.3-6.8-16.8-9.4-26.6-8c-18.5,2.7-21.4,21.5-17.9,37
		c4.5,19.8,17.1,38.5,30.5,53.5c10.5,11.7,31.3,30.6,47.8,31.7c16.2,1.1,23.8-14.3,29.1-28C620.8,429,609.6,415.9,598.5,397.5z"/>
	<path d="M269.2,370.3c-1.2-2.2-4.3-1-4.5,1.2c-0.1,1.9-0.3,3.7-0.6,5.5c0.2-1.9,0.3-3.8,0.4-5.6c0.1-1.9-2.8-3.4-4.1-1.7
		c-9.4,11.9-18.9,23.6-26.6,36.6c-0.1-1.5-0.1-2.9-0.2-4.4c0-2.2-3.4-3.4-4.5-1.2c-3.4,7.1-7.2,14.1-11.2,20.9
		c-0.1-3.9-0.1-7.8-0.4-11.7c-0.1-2.2-3.3-3.5-4.5-1.2c-7.6,14.8-11.6,31-17.5,46.5c-1.1,2.9,3.5,4.1,4.6,1.3
		c0.1-0.2,0.2-0.5,0.3-0.7c0.2,0.1,0.3,0.2,0.5,0.3c4.3,13.3,26.8-5,32.9-10.6c1.7-1.6,3.3-3.3,4.9-5c2.5-1.8,5.1-3.8,7.5-5.9
		c1.2,0.8,3.2,0.5,3.9-1.2c0.5-1.2,1-2.4,1.5-3.6c1.5-1.4,3-2.9,4.4-4.4c0.8,0,1.6-0.3,2-1.2c0.3-0.7,0.6-1.3,0.8-1.9
		C271.8,407.7,279.4,389.4,269.2,370.3z M268.3,381.4c1.9,8,0.5,15.8-2.9,23c0.6-1.6,1.1-3.3,1.7-4.9c0.6-1.8-1-3-2.5-2.9
		C266.2,391.6,267.4,386.6,268.3,381.4z"/>
	<path d="M322.3,326.8c-8.4,7.7-18.2,14.8-28.8,19.4c1.4-4.7,3.1-9.1,5.6-13.5c1.3-2.4-1.8-4.9-3.8-2.9
		c-13.8,14-28.1,28.8-32.5,48.6c-0.3,1.5,0.7,2.6,1.9,2.9c0,0.2-0.1,0.3-0.1,0.5c-0.2,1.4,0.6,3.2,2.3,3
		c12.5-1.3,23.8-13.2,32.1-21.5c9.9-9.8,20.8-21,27-33.7C327.3,327.3,324.4,324.9,322.3,326.8z"/>
	<path d="M635.2,434.8c-2.1,1.3-4.3,2.4-6.5,3.6c2.3-7.1,3.4-14.5,5.2-21.8c0.5-1.9-1.7-3.9-3.5-2.7c-14.3,9.4-31.5,24.5-32.7,42.8
		c-0.4,7,1.5,15.5,6.2,17.9c-0.3,1.8,1.5,3.9,3.4,2.6c1.7-1.2,3.4-2.5,5-3.8c0.6-0.4,1.2-0.8,1.8-1.3c0.3-0.2,0.5-0.5,0.7-0.8
		c10.4-9.2,18.7-20.9,23.8-33.7C639.6,435.5,636.9,433.8,635.2,434.8z"/>
	<g>
		<g>
			<path fill="#FD57B0" d="M582.5,458.7c8.5-13.2,13.5-28,14.9-43.6c0.2-1.7-2.2-3.1-3.6-2.1c-4.8,3.5-9.7,7-14.5,10.5
				c1.2,0.7,2.4,1.4,3.6,2.1c1-7.5,1.9-15,2.9-22.6c0.2-1.8-2.2-3-3.6-2.1c-4.2,2.9-8,6.2-11.3,10.2c-2,2.4,1.4,5.8,3.4,3.4
				c3-3.6,6.4-6.7,10.3-9.4c-1.2-0.7-2.4-1.4-3.6-2.1c-1,7.5-1.9,15-2.9,22.6c-0.2,1.8,2.2,3.1,3.6,2.1c4.8-3.5,9.7-7,14.5-10.5
				c-1.2-0.7-2.4-1.4-3.6-2.1c-1.4,14.8-6.3,28.7-14.3,41.2C576.7,458.8,580.8,461.2,582.5,458.7L582.5,458.7z"/>
		</g>
	</g>
	<g>
		<g>
			<path fill="#FD57B0" d="M234.7,491.2c-9.4-9.4-15.1-21.6-16.3-34.9c-1.4,0.6-2.7,1.1-4.1,1.7c4.6,5.6,10,10,16.3,13.5
				c2,1.1,3.8-0.7,3.5-2.7c-1.8-12.5-4.1-24.9-6.9-37.2c-1.5,0.6-2.9,1.2-4.4,1.9c4,5.3,8.4,10.1,13.5,14.4c1.9,1.6,4.4,0,4-2.3
				c-1.2-8-1.6-16-1.4-24c-1.5,0.4-3,0.8-4.5,1.2c3.1,4.5,6.3,9.1,9.4,13.6c1.7,2.5,5.9,0.1,4.1-2.4c-3.1-4.5-6.3-9.1-9.4-13.6
				c-1.3-1.9-4.4-1.3-4.5,1.2c-0.2,8.5,0.3,16.9,1.6,25.3c1.3-0.8,2.7-1.6,4-2.3c-4.7-4-9-8.4-12.7-13.4c-1.6-2.1-5-1-4.4,1.9
				c2.8,12.3,5.1,24.7,6.9,37.2c1.2-0.9,2.4-1.8,3.5-2.7c-6-3.3-11-7.5-15.4-12.8c-1.3-1.6-4.3-0.3-4.1,1.7
				c1.3,14.6,7.4,27.9,17.7,38.3C233.5,496.8,236.9,493.4,234.7,491.2L234.7,491.2z"/>
		</g>
	</g>
	<g>
		<path d="M444.6,541.2c-0.2,0.2-0.4,0.4-0.6,0.7c-1.3-0.5-3.3,0.3-3.6,2.1c-0.1,0.9-0.3,1.7-0.5,2.6c-3.8,4.5-7.8,9.1-12.1,13
			c-7.5,4.9-16.3,7.4-26.3,6.7c-17.3-1.3-33.3-10.7-46.1-21.9c-0.1-0.1-0.1-0.1-0.2-0.2c-1.5-2.5-5.4-0.1-4,2.6
			c8.3,16.7,30.6,27.7,48.5,28.9c6.6,0.4,12.4-0.8,17.6-3.2c10.1-3.7,20.2-10.5,25.2-19.7c2.2-2.7,4.2-5.6,6-8.7
			C449.7,541.8,446.5,539.1,444.6,541.2z"/>
	</g>
	<path d="M457.7,545.2c-0.5-2.4-2-4.7-4.5-5.3c-3.4-0.9-6.6,1.7-8.8,4c-0.5,0.5-0.7,1.1-0.7,1.6c-1.1,1.4-2.2,2.7-3.2,4.2
		c-2.5,3.9-1,7.6,3.3,9.2c2.8,1,6,1.1,8.7-0.4C456.9,556,458.8,550,457.7,545.2z"/>
	<path d="M361.8,556.3c-0.8-2.5-2-4.8-3.6-6.9c1.8-0.3,3.2-2.5,1.4-3.9c-2.5-2-5.7-4.2-9.1-3.7c-2.6,0.4-4.4,2.3-5.1,4.8
		c-1.4,4.8,0.7,11.2,5.2,13.6c3.3,1.7,7,0.8,10-1.1C361.6,558.5,362.2,557.3,361.8,556.3z"/>
	<g>
		<g>
			<path fill="#FFFFFF" stroke="#000000" stroke-width="14.4099" stroke-miterlimit="10" d="M634.9,564.1L567,550.4
				c-0.7-0.1-1.1-0.8-1-1.5l0.7-3.2c0.1-0.7,0.8-1.1,1.5-1l67.9,13.7c0.7,0.1,1.1,0.8,1,1.5l-0.7,3.2
				C636.3,563.8,635.6,564.2,634.9,564.1z"/>
		</g>
		<path fill="#33D3D3" d="M633.9,563.6l-75.4-15.2c-0.8-0.2-1.3-0.9-1.1-1.7l0.7-3.6c0.2-0.8,0.9-1.3,1.7-1.1l75.4,15.2
			c0.8,0.2,1.3,0.9,1.1,1.7l-0.7,3.6C635.5,563.2,634.7,563.7,633.9,563.6z"/>
	</g>
	<g>
		<g>
			<path fill="#FFFFFF" stroke="#000000" stroke-width="14.4099" stroke-miterlimit="10" d="M644.8,521l-74.3,4.6
				c-0.6,0-1.2-0.5-1.2-1.1l-0.2-3c0-0.6,0.5-1.2,1.1-1.2l74.3-4.6c0.6,0,1.2,0.5,1.2,1.1l0.2,3C645.9,520.4,645.4,521,644.8,521z"
				/>
		</g>
		<path fill="#FD57B0" d="M643.6,520.8l-82.6,5.1c-0.7,0-1.3-0.5-1.4-1.2l-0.2-3.3c0-0.7,0.5-1.3,1.2-1.4l82.6-5.1
			c0.7,0,1.3,0.5,1.4,1.2l0.2,3.3C644.9,520.1,644.3,520.8,643.6,520.8z"/>
	</g>
	<g>
		<g>
			<path fill="#FFFFFF" stroke="#000000" stroke-width="14.4099" stroke-miterlimit="10" d="M166.6,564.1l67.9-13.7
				c0.7-0.1,1.1-0.8,1-1.5l-0.7-3.2c-0.1-0.7-0.8-1.1-1.5-1l-67.9,13.7c-0.7,0.1-1.1,0.8-1,1.5l0.7,3.2
				C165.3,563.8,165.9,564.2,166.6,564.1z"/>
		</g>
		<path fill="#33D3D3" d="M167.6,563.6l75.4-15.2c0.8-0.2,1.3-0.9,1.1-1.7l-0.7-3.6c-0.2-0.8-0.9-1.3-1.7-1.1l-75.4,15.2
			c-0.8,0.2-1.3,0.9-1.1,1.7l0.7,3.6C166.1,563.2,166.8,563.7,167.6,563.6z"/>
	</g>
	<g>
		<g>
			<path fill="#FFFFFF" stroke="#000000" stroke-width="14.4099" stroke-miterlimit="10" d="M156.8,521l74.3,4.6
				c0.6,0,1.2-0.5,1.2-1.1l0.2-3c0-0.6-0.5-1.2-1.1-1.2l-74.3-4.6c-0.6,0-1.2,0.5-1.2,1.1l-0.2,3C155.7,520.4,156.2,521,156.8,521z"
				/>
		</g>
		<path fill="#FD57B0" d="M157.9,520.8l82.6,5.1c0.7,0,1.3-0.5,1.4-1.2l0.2-3.3c0-0.7-0.5-1.3-1.2-1.4l-82.6-5.1
			c-0.7,0-1.3,0.5-1.4,1.2l-0.2,3.3C156.7,520.1,157.2,520.8,157.9,520.8z"/>
	</g>
	<g>
		<path fill="#FFFFFF" d="M503.2,520.5c-22.3,1.5-40.6,0.4-55.1-13.1c-17.7-16.4-12.4-38.2-9.5-57.6c1.8-11.8,9.3-24,17.3-33.4
			c20.2-23.7,62-17.6,86.6,6.1c13.5,13,23.4,27.9,22.9,48.4c-0.9,36.1-21.9,46.2-48.6,49.5C511.2,521.1,505.3,520.5,503.2,520.5z"/>
	</g>
	<g>
		<path d="M443.9,297L443.9,297c0,0.3-0.1,0.6-0.2,0.9c-0.5,3.4,1.9,6.5,5.3,7c3.4,0.5,6.5-1.9,7-5.3c0.2-1.1,0-2.1-0.4-3h0
			c0,0,0,0,0-0.1c-0.2-0.5-0.4-0.9-0.7-1.4c-1.5-2.9-5-9.7-5.5-12.2c0,0-3.1,8.7-5.2,13.5c0,0.1-0.1,0.2-0.1,0.2
			C444,296.8,444,296.9,443.9,297z"/>
		<path d="M431.8,211.1L431.8,211.1c0,0.3-0.1,0.6-0.2,0.9c-0.5,3.4,1.9,6.5,5.3,7c3.4,0.5,6.5-1.9,7-5.2c0.2-1.1,0-2.1-0.4-3h0
			c0,0,0,0,0-0.1c-0.2-0.5-0.4-0.9-0.7-1.4c-1.6-2.9-5-9.7-5.5-12.2c0,0-3.1,8.7-5.2,13.5c0,0.1-0.1,0.1-0.1,0.2
			C431.9,210.9,431.8,211,431.8,211.1z"/>
		<path d="M417.1,261.7L417.1,261.7c0,0.3-0.1,0.6-0.2,0.9c-0.5,3.4,1.9,6.5,5.3,7c3.4,0.5,6.5-1.9,7-5.3c0.1-1.1,0-2.1-0.4-3l0,0
			c0,0,0,0,0-0.1c-0.2-0.5-0.4-0.9-0.7-1.4c-1.5-2.9-5-9.7-5.5-12.2c0,0-3.1,8.7-5.2,13.5c0,0.1-0.1,0.2-0.1,0.2
			C417.2,261.6,417.2,261.7,417.1,261.7z"/>
		<path d="M391.5,218.1L391.5,218.1c0,0.3-0.1,0.6-0.2,0.9c-0.5,3.4,1.9,6.5,5.3,7c3.4,0.5,6.5-1.9,7-5.3c0.2-1.1,0-2.1-0.4-3h0
			c0,0,0,0,0-0.1c-0.2-0.5-0.4-0.9-0.7-1.4c-1.5-2.9-5-9.7-5.5-12.2c0,0-3.1,8.7-5.2,13.5c0,0.1-0.1,0.2-0.1,0.2
			C391.6,217.9,391.6,218,391.5,218.1z"/>
		<path d="M393.4,158l0.2,0c-0.3,0.9-0.5,1.8-0.7,2.7c-1.4,9.9,5.5,19.1,15.5,20.5c10,1.4,19.1-5.5,20.5-15.5c0.4-3.1,0-6.2-1.1-8.9
			l0,0c0,0-0.1-0.1-0.1-0.2c-0.6-1.4-1.2-2.8-2.1-4c-4.5-8.6-14.7-28.4-16.2-35.9c0,0-9,25.5-15.3,39.8c-0.1,0.2-0.2,0.4-0.3,0.7
			C393.6,157.4,393.5,157.7,393.4,158z"/>
		<path d="M591.6,699.1l0.2,0c-0.3,0.9-0.5,1.8-0.7,2.7c-1.4,9.9,5.5,19.1,15.5,20.5c10,1.4,19.1-5.5,20.5-15.5
			c0.4-3.1,0-6.2-1.1-8.9l0,0c0,0-0.1-0.1-0.1-0.2c-0.6-1.4-1.2-2.8-2.1-4c-4.5-8.6-14.7-28.4-16.2-35.9c0,0-9,25.5-15.3,39.8
			c-0.1,0.2-0.2,0.4-0.3,0.7C591.8,698.6,591.7,698.9,591.6,699.1z"/>
		<path fill="#33D3D3" d="M685.2,459l0.2,0c-0.3,0.9-0.5,1.8-0.7,2.7c-1.4,9.9,5.5,19.1,15.5,20.5c10,1.4,19.1-5.5,20.5-15.5
			c0.4-3.1,0-6.2-1.1-8.9l0,0c0,0-0.1-0.1-0.1-0.2c-0.6-1.4-1.2-2.8-2.1-4c-4.5-8.6-14.7-28.4-16.2-35.9c0,0-9,25.5-15.3,39.8
			c-0.1,0.2-0.2,0.4-0.3,0.7C685.5,458.4,685.4,458.7,685.2,459z"/>
		<path fill="#C5D82E" d="M66.1,408.7l0.2,0c-0.3,0.9-0.5,1.8-0.7,2.7c-1.4,9.9,5.5,19.1,15.5,20.5c10,1.4,19.1-5.5,20.5-15.5
			c0.4-3.1,0-6.2-1.1-8.9l0,0c0,0-0.1-0.1-0.1-0.2c-0.6-1.4-1.2-2.8-2.1-4c-4.5-8.6-14.7-28.4-16.2-35.9c0,0-9,25.5-15.3,39.8
			c-0.1,0.2-0.2,0.4-0.3,0.7C66.3,408.2,66.2,408.5,66.1,408.7z"/>
		<path fill="#FD57B0" d="M140.1,708.7l0.2,0c-0.3,0.9-0.5,1.8-0.7,2.7c-1.4,9.9,5.5,19.1,15.5,20.5c10,1.4,19.1-5.5,20.5-15.5
			c0.4-3.1,0-6.2-1.1-8.9l0,0c0,0-0.1-0.1-0.1-0.2c-0.6-1.4-1.2-2.8-2.1-4c-4.5-8.6-14.7-28.4-16.2-35.9c0,0-9,25.5-15.3,39.8
			c-0.1,0.2-0.2,0.4-0.3,0.7C140.3,708.2,140.2,708.5,140.1,708.7z"/>
	</g>
	<g>
		<rect x="546.1" y="121.5" fill-rule="evenodd" clip-rule="evenodd" width="66.3" height="17.7"/>
		<polygon fill-rule="evenodd" clip-rule="evenodd" points="639,167.2 662.6,143.6 616.9,124.5 		"/>
		<polygon fill-rule="evenodd" clip-rule="evenodd" points="521.1,167.2 497.5,143.6 543.2,124.5 		"/>
		<polygon fill-rule="evenodd" clip-rule="evenodd" points="580,229.1 543.2,190.8 616.9,190.8 		"/>
		<g>
			<g>
				
					<polygon fill-rule="evenodd" clip-rule="evenodd" fill="none" stroke="#000000" stroke-width="21.05" stroke-linecap="round" stroke-linejoin="round" points="
					582.6,208.3 582.6,163 613.5,158.7 582.6,208.3 				"/>
				
					<polygon fill-rule="evenodd" clip-rule="evenodd" fill="none" stroke="#000000" stroke-width="21.05" stroke-linecap="round" stroke-linejoin="round" points="
					613.2,154.5 611.3,147.1 582.6,151.2 582.6,158.7 613.2,154.5 				"/>
				
					<polygon fill-rule="evenodd" clip-rule="evenodd" fill="none" stroke="#000000" stroke-width="21.05" stroke-linecap="round" stroke-linejoin="round" points="
					591,203.1 619.1,157.9 641.4,150.7 591,203.1 				"/>
				
					<polygon fill-rule="evenodd" clip-rule="evenodd" fill="none" stroke="#000000" stroke-width="21.05" stroke-linecap="round" stroke-linejoin="round" points="
					640.7,146.5 617.4,153.9 615.3,146.4 625.4,139 640.7,146.5 				"/>
				
					<polygon fill-rule="evenodd" clip-rule="evenodd" fill="none" stroke="#000000" stroke-width="21.05" stroke-linecap="round" stroke-linejoin="round" points="
					578.2,208.3 578.2,163 547.3,158.7 578.2,208.3 				"/>
				
					<polygon fill-rule="evenodd" clip-rule="evenodd" fill="none" stroke="#000000" stroke-width="21.05" stroke-linecap="round" stroke-linejoin="round" points="
					547.6,154.5 549.5,147.1 578.2,151.2 578.2,158.7 547.6,154.5 				"/>
				
					<polygon fill-rule="evenodd" clip-rule="evenodd" fill="none" stroke="#000000" stroke-width="21.05" stroke-linecap="round" stroke-linejoin="round" points="
					569.8,203.1 541.7,157.9 519.4,150.7 569.8,203.1 				"/>
				
					<polygon fill-rule="evenodd" clip-rule="evenodd" fill="none" stroke="#000000" stroke-width="21.05" stroke-linecap="round" stroke-linejoin="round" points="
					520.1,146.5 543.4,153.9 545.5,146.4 535.4,139 520.1,146.5 				"/>
				
					<polygon fill-rule="evenodd" clip-rule="evenodd" fill="none" stroke="#000000" stroke-width="21.05" stroke-linecap="round" stroke-linejoin="round" points="
					580.5,147.1 547.9,142.6 540.4,137.1 550.1,133.2 580.5,132 610.7,133.2 620.4,137.1 612.9,142.6 580.5,147.1 				"/>
			</g>
			<g>
				<polygon fill-rule="evenodd" clip-rule="evenodd" fill="#FD57B0" points="582.6,208.3 582.6,163 613.5,158.7 582.6,208.3 				
					"/>
				<linearGradient id="SVGID_1_" gradientUnits="userSpaceOnUse" x1="582.5779" y1="183.505" x2="613.5172" y2="183.505">
					<stop  offset="0" style="stop-color:#FDFDFE;stop-opacity:0"/>
					<stop  offset="0.7277" style="stop-color:#FDFDFE"/>
				</linearGradient>
				<polygon fill-rule="evenodd" clip-rule="evenodd" fill="url(#SVGID_1_)" points="582.6,208.3 582.6,163 613.5,158.7 
					582.6,208.3 				"/>
				<polygon fill-rule="evenodd" clip-rule="evenodd" fill="#FD57B0" points="613.2,154.5 611.3,147.1 582.6,151.2 582.6,158.7 
					613.2,154.5 				"/>
				<polygon fill-rule="evenodd" clip-rule="evenodd" fill="#FD57B0" points="591,203.1 619.1,157.9 641.4,150.7 591,203.1 				"/>
				<polygon fill-rule="evenodd" clip-rule="evenodd" fill="#FD57B0" points="640.7,146.5 617.4,153.9 615.3,146.4 625.4,139 
					640.7,146.5 				"/>
				<polygon fill-rule="evenodd" clip-rule="evenodd" fill="#FD57B0" points="578.2,208.3 578.2,163 547.3,158.7 578.2,208.3 				
					"/>
				<polygon fill-rule="evenodd" clip-rule="evenodd" fill="#FD57B0" points="547.6,154.5 549.5,147.1 578.2,151.2 578.2,158.7 
					547.6,154.5 				"/>
				<polygon fill-rule="evenodd" clip-rule="evenodd" fill="#FD57B0" points="569.8,203.1 541.7,157.9 519.4,150.7 569.8,203.1 				
					"/>
				<polygon fill-rule="evenodd" clip-rule="evenodd" fill="#FD57B0" points="520.1,146.5 543.4,153.9 545.5,146.4 535.4,139 
					520.1,146.5 				"/>
				<polygon fill-rule="evenodd" clip-rule="evenodd" fill="#FD57B0" points="580.5,147.1 547.9,142.6 540.4,137.1 550.1,133.2 
					580.5,132 610.7,133.2 620.4,137.1 612.9,142.6 580.5,147.1 				"/>
				<linearGradient id="SVGID_2_" gradientUnits="userSpaceOnUse" x1="540.4132" y1="139.5341" x2="620.4374" y2="139.5341">
					<stop  offset="0" style="stop-color:#FDFDFE;stop-opacity:0"/>
					<stop  offset="0.7277" style="stop-color:#FDFDFE"/>
				</linearGradient>
				<polygon fill-rule="evenodd" clip-rule="evenodd" fill="url(#SVGID_2_)" points="580.5,147.1 547.9,142.6 540.4,137.1 
					550.1,133.2 580.5,132 610.7,133.2 620.4,137.1 612.9,142.6 580.5,147.1 				"/>
			</g>
		</g>
	</g>
	<g>
		<rect x="159" y="193.4" fill-rule="evenodd" clip-rule="evenodd" width="48.9" height="13"/>
		<polygon fill-rule="evenodd" clip-rule="evenodd" points="227.4,227 244.7,209.7 211.1,195.5 		"/>
		<polygon fill-rule="evenodd" clip-rule="evenodd" points="140.5,227 123.2,209.7 156.8,195.5 		"/>
		<polygon fill-rule="evenodd" clip-rule="evenodd" points="183.9,272.6 156.8,244.4 211.1,244.4 		"/>
		<g>
			<g>
				
					<polygon fill-rule="evenodd" clip-rule="evenodd" fill="none" stroke="#000000" stroke-width="15.5037" stroke-linecap="round" stroke-linejoin="round" points="
					185.8,257.3 185.8,224 208.6,220.7 185.8,257.3 				"/>
				
					<polygon fill-rule="evenodd" clip-rule="evenodd" fill="none" stroke="#000000" stroke-width="15.5037" stroke-linecap="round" stroke-linejoin="round" points="
					208.4,217.7 207,212.2 185.8,215.2 185.8,220.7 208.4,217.7 				"/>
				
					<polygon fill-rule="evenodd" clip-rule="evenodd" fill="none" stroke="#000000" stroke-width="15.5037" stroke-linecap="round" stroke-linejoin="round" points="
					192,253.5 212.7,220.2 229.2,214.9 192,253.5 				"/>
				
					<polygon fill-rule="evenodd" clip-rule="evenodd" fill="none" stroke="#000000" stroke-width="15.5037" stroke-linecap="round" stroke-linejoin="round" points="
					228.6,211.8 211.5,217.2 209.9,211.7 217.4,206.2 228.6,211.8 				"/>
				
					<polygon fill-rule="evenodd" clip-rule="evenodd" fill="none" stroke="#000000" stroke-width="15.5037" stroke-linecap="round" stroke-linejoin="round" points="
					182.6,257.3 182.6,224 159.8,220.7 182.6,257.3 				"/>
				
					<polygon fill-rule="evenodd" clip-rule="evenodd" fill="none" stroke="#000000" stroke-width="15.5037" stroke-linecap="round" stroke-linejoin="round" points="
					160.1,217.7 161.5,212.2 182.6,215.2 182.6,220.7 160.1,217.7 				"/>
				
					<polygon fill-rule="evenodd" clip-rule="evenodd" fill="none" stroke="#000000" stroke-width="15.5037" stroke-linecap="round" stroke-linejoin="round" points="
					176.4,253.5 155.7,220.2 139.3,214.9 176.4,253.5 				"/>
				
					<polygon fill-rule="evenodd" clip-rule="evenodd" fill="none" stroke="#000000" stroke-width="15.5037" stroke-linecap="round" stroke-linejoin="round" points="
					139.8,211.8 157,217.2 158.5,211.7 151.1,206.2 139.8,211.8 				"/>
				
					<polygon fill-rule="evenodd" clip-rule="evenodd" fill="none" stroke="#000000" stroke-width="15.5037" stroke-linecap="round" stroke-linejoin="round" points="
					184.3,212.2 160.3,208.9 154.8,204.8 161.9,201.9 184.3,201.1 206.5,201.9 213.7,204.8 208.2,208.9 184.3,212.2 				"/>
			</g>
			<g>
				<polygon fill-rule="evenodd" clip-rule="evenodd" fill="#33D3D3" points="185.8,257.3 185.8,224 208.6,220.7 185.8,257.3 				
					"/>
				<polygon fill-rule="evenodd" clip-rule="evenodd" fill="#33D3D3" points="208.4,217.7 207,212.2 185.8,215.2 185.8,220.7 
					208.4,217.7 				"/>
				<polygon fill-rule="evenodd" clip-rule="evenodd" fill="#33D3D3" points="192,253.5 212.7,220.2 229.2,214.9 192,253.5 				"/>
				<polygon fill-rule="evenodd" clip-rule="evenodd" fill="#33D3D3" points="228.6,211.8 211.5,217.2 209.9,211.7 217.4,206.2 
					228.6,211.8 				"/>
				<polygon fill-rule="evenodd" clip-rule="evenodd" fill="#33D3D3" points="182.6,257.3 182.6,224 159.8,220.7 182.6,257.3 				
					"/>
				<polygon fill-rule="evenodd" clip-rule="evenodd" fill="#33D3D3" points="160.1,217.7 161.5,212.2 182.6,215.2 182.6,220.7 
					160.1,217.7 				"/>
				<polygon fill-rule="evenodd" clip-rule="evenodd" fill="#33D3D3" points="176.4,253.5 155.7,220.2 139.3,214.9 176.4,253.5 				
					"/>
				<polygon fill-rule="evenodd" clip-rule="evenodd" fill="#33D3D3" points="139.8,211.8 157,217.2 158.5,211.7 151.1,206.2 
					139.8,211.8 				"/>
				<polygon fill-rule="evenodd" clip-rule="evenodd" fill="#33D3D3" points="184.3,212.2 160.3,208.9 154.8,204.8 161.9,201.9 
					184.3,201.1 206.5,201.9 213.7,204.8 208.2,208.9 184.3,212.2 				"/>
			</g>
		</g>
	</g>
	<path d="M344.3,199.1c-3.9-0.4-7.6,0.6-10.6,2.6c-0.5-1.7-1.4-3.2-2.8-4.4c-3.7-3.2-9.3-2.9-14.1,0.2c-3-3.9-7.6-6.8-13.1-7.4
		c-10.1-1.1-19.1,5.7-20.1,15.1c-0.2,2.3,0,4.5,0.7,6.6c-1.1-0.1-2.2-0.1-3.4,0c-7.8,0.8-13.6,6.4-12.9,12.6
		c0.6,6.2,7.4,10.6,15.2,9.8c0.6-0.1,1.1-0.2,1.6-0.3c1.4,5.2,6.2,9.4,12.2,10c4.4,0.5,8.5-1,11.4-3.7c2.5,4.5,7,7.7,12.6,8.3
		c8.9,1,16.9-5.3,17.8-14.1c0.2-1.5,0-2.9-0.2-4.2c0.7,0.2,1.5,0.4,2.3,0.5c8.9,1,16.9-5.3,17.8-14.1
		C359.7,207.9,353.2,200,344.3,199.1z"/>
	<path fill-rule="evenodd" clip-rule="evenodd" d="M387.3,286.9c-0.1,0.5,0.8,6.3,1,7.3c0.2,1.4,1,6.1,0.9,7.3l-12.9-6.9l-13.4,6.4
		c0.5-3,1-5.7,1.5-8.7c0.2-1.5,0.6-2.9,0.8-4.3c0.4-2.2,0-1.9-1.1-3.1c-1.5-1.6-2.9-3-4.4-4.6c-1.4-1.5-3.2-3.1-4.4-4.7
		c1.3-0.1,14.4-1.9,14.6-2.1c0.2-0.2,6.5-11.7,6.9-12.8l0.1-0.1l6.5,13.3l0.1-0.1l14.3,2.6C396.8,278.1,387.3,286.6,387.3,286.9
		L387.3,286.9z"/>
	<path d="M385.1,20.9c-4.4-0.5-8.6,0.7-12.1,2.9c-0.6-1.9-1.6-3.7-3.2-5c-4.2-3.6-10.7-3.3-16,0.2c-3.4-4.5-8.6-7.7-14.9-8.4
		c-11.5-1.2-21.8,6.5-23,17.3c-0.3,2.6,0,5.2,0.8,7.6c-1.3-0.1-2.6-0.2-3.9,0c-8.9,0.9-15.5,7.4-14.8,14.4
		c0.7,7.1,8.5,12.1,17.4,11.2c0.6-0.1,1.2-0.2,1.8-0.3c1.6,6,7,10.7,13.9,11.4c5,0.5,9.7-1.2,13-4.2c2.8,5.1,8,8.8,14.3,9.5
		c10.2,1.1,19.3-6.1,20.4-16c0.2-1.7,0-3.3-0.2-4.8c0.8,0.2,1.7,0.4,2.6,0.5c10.2,1.1,19.3-6.1,20.4-16
		C402.6,30.9,395.3,22,385.1,20.9z"/>
	<path fill="#FFFFFF" d="M306.2,521.8c-11.5-2.9-25.5-4.6-38.1-10c-20.7-8.8-27.1-33.2-20.8-54.9c6.7-23.2,19.8-39.2,40.8-49.7
		c40.1-20,81.3,3.9,83.3,48.4c1.1,24.4-2.2,47.5-27.6,58.6C333.3,518.9,320.9,519.1,306.2,521.8z"/>
	<g>
		<g>
			<path fill="#33D3D3" d="M463.7,399.2c6.1-11.6,12.8-22.7,20.1-33.5c-1.5-0.4-3-0.8-4.5-1.2c0.8,7,1.2,14.1,1.2,21.2
				c0,2.2,2.6,3.1,4.1,1.7c7.7-6.9,14.5-14.6,20.5-23.1c-1.5-0.4-3-0.8-4.5-1.2c-0.8,6.2-1.5,12.3-2.3,18.5c-0.4,3.1,4.4,3,4.8,0
				c0.8-6.2,1.5-12.3,2.3-18.5c0.3-2.6-3.3-2.9-4.5-1.2c-5.7,8.1-12.3,15.5-19.8,22.1c1.4,0.6,2.7,1.1,4.1,1.7
				c0-7.1-0.4-14.1-1.2-21.2c-0.3-2.3-3.1-3.3-4.5-1.2c-7.3,10.8-14,22-20.1,33.5C458.1,399.5,462.2,402,463.7,399.2L463.7,399.2z"
				/>
		</g>
	</g>
	<g>
		<g>
			<path fill="#33D3D3" d="M362.4,396.6c-7.3-8.4-14.7-16.9-22-25.3c-1.7-2-4.4,0.2-4,2.3c1.2,6,2.4,12.1,3.5,18.1
				c1.3-0.8,2.7-1.6,4-2.3c-7-7.7-14.1-15.3-21.1-23c-1.7-1.8-4.6,0.1-4,2.3c1.6,6.5,3.1,12.9,4.7,19.4c1.3-0.8,2.7-1.6,4-2.3
				c-9.2-7.5-18.3-15.1-27.5-22.6c-1.9-1.5-4.5-0.1-4,2.3c1.1,5.8,2.2,11.5,3.3,17.3c0.6,3,5.2,1.7,4.6-1.3
				c-1.1-5.8-2.2-11.5-3.3-17.3c-1.3,0.8-2.7,1.6-4,2.3c9.2,7.5,18.3,15.1,27.5,22.6c1.8,1.5,4.6,0.1,4-2.3
				c-1.6-6.5-3.1-12.9-4.7-19.4c-1.3,0.8-2.7,1.6-4,2.3c7,7.7,14.1,15.3,21.1,23c1.7,1.9,4.4-0.1,4-2.3c-1.2-6-2.4-12.1-3.5-18.1
				c-1.3,0.8-2.7,1.6-4,2.3c7.3,8.4,14.7,16.9,22,25.3C361,402.3,364.4,398.9,362.4,396.6L362.4,396.6z"/>
		</g>
	</g>
	<g>
		<g>
			<g>
				<circle fill="#33D3D3" cx="498.6" cy="462.8" r="51.1"/>
				<circle cx="498.6" cy="462.8" r="36.1"/>
			</g>
			<path fill-rule="evenodd" clip-rule="evenodd" fill="#FFFFFF" d="M491.6,479.4c-0.1,0.4,0.5,4.8,0.5,5.5c0.1,1.1,0.6,4.7,0.5,5.6
				l-9.6-5.6l-10.3,4.5c0.5-2.3,1-4.3,1.4-6.5c0.2-1.1,0.5-2.2,0.7-3.2c0.3-1.7,0.1-1.4-0.8-2.4c-1.1-1.2-2.1-2.4-3.2-3.6
				c-1-1.2-2.3-2.5-3.2-3.7c1,0,10.9-1,11.1-1.2c0.2-0.1,5.2-8.7,5.6-9.5l0.1,0l4.5,10.3l0.1,0l10.8,2.3
				C499.1,473,491.7,479.1,491.6,479.4L491.6,479.4z"/>
			<circle fill-rule="evenodd" clip-rule="evenodd" fill="#FFFFFF" cx="529.5" cy="464.3" r="9.6"/>
		</g>
	</g>
	<g>
		<g>
			<g>
				<circle fill="#33D3D3" cx="311.3" cy="462.8" r="51.1"/>
				<circle cx="311.3" cy="462.8" r="36.1"/>
			</g>
			<path fill-rule="evenodd" clip-rule="evenodd" fill="#FFFFFF" d="M304.3,479.4c-0.1,0.4,0.5,4.8,0.5,5.5c0.1,1.1,0.6,4.7,0.5,5.6
				l-9.6-5.6l-10.3,4.5c0.5-2.3,1-4.3,1.4-6.5c0.2-1.1,0.5-2.2,0.7-3.2c0.3-1.7,0.1-1.4-0.8-2.4c-1.1-1.2-2.1-2.4-3.2-3.6
				c-1-1.2-2.3-2.5-3.2-3.7c1,0,10.9-1,11.1-1.2c0.2-0.1,5.2-8.7,5.6-9.5l0.1,0l4.5,10.3l0.1,0l10.8,2.3
				C311.8,473,304.4,479.1,304.3,479.4L304.3,479.4z"/>
			<circle fill-rule="evenodd" clip-rule="evenodd" fill="#FFFFFF" cx="338" cy="456.4" r="14.4"/>
		</g>
	</g>
	<rect x="396.1" y="531" width="8" height="36.8"/>
	<path fill="#FD57B0" d="M407.1,518c-3.3,0-6,1.4-7.6,3.8c-1.2-2.1-3.2-3.8-7.6-3.8c-4.9,0-8.6,3.6-8.6,6.8
		c0,9.1,15.2,14.4,15.9,14.7c0.1,0,0.2,0,0.3,0c0.1,0,0.2,0,0.3,0c0.7-0.2,16-5.5,16-14.7C415.7,521.6,411.9,518,407.1,518z"/>
	<g>
		<g>
			<path d="M630.2,437.6c6.6-9.9,11.5-20.6,14.6-32.1c0.6-2.2-2.4-4.2-4-2.3c-2.9,3.3-6.2,5.6-10.4,7.1c1,1,2,2,3,3
				c3.2-13.4,4.4-27,3.6-40.8c-0.2-3.1-5-3.1-4.8,0c0.8,13.3-0.3,26.5-3.4,39.5c-0.4,1.7,1.1,3.6,3,3c4.9-1.7,9-4.4,12.5-8.3
				c-1.3-0.8-2.7-1.6-4-2.3c-3,11.1-7.7,21.4-14.1,30.9C624.3,437.8,628.5,440.2,630.2,437.6L630.2,437.6z"/>
		</g>
	</g>
	<g>
		<g>
			<path d="M178.7,435.2c-6.4-9.5-11.1-19.8-14.1-30.9c-1.3,0.8-2.7,1.6-4,2.3c3.5,3.9,7.6,6.6,12.5,8.3c1.8,0.6,3.4-1.3,3-3
				c-3.1-13-4.2-26.2-3.4-39.5c0.2-3.1-4.6-3.1-4.8,0c-0.8,13.7,0.4,27.4,3.6,40.8c1-1,2-2,3-3c-4.2-1.5-7.4-3.8-10.4-7.1
				c-1.6-1.8-4.6,0.1-4,2.3c3.1,11.4,8,22.2,14.6,32.1C176.2,440.2,180.4,437.8,178.7,435.2L178.7,435.2z"/>
		</g>
	</g>
	<path d="M537.5,352.3c-2.5-8.3-7.9-15.2-12.5-22.5c-1.3-2.1-4.3-1.2-4.5,1.2c-0.3,5.2-0.4,10.4-0.3,15.6
		c-6.7-12.2-16.1-22.5-24-34.1c-1.2-1.8-4.7-1.4-4.5,1.2c0.3,3.3,0.9,6.5,1.6,9.6c-0.5,0.8-0.6,1.9,0.4,2.8c0.2,0.2,0.4,0.3,0.5,0.5
		c1.5,5.4,3.5,10.7,5.3,16c1,2.9,5.6,1.7,4.6-1.3c-0.5-1.5-1-3-1.5-4.4c4.9,6.6,10,13.7,16.2,17.5c0.6,1.2,1.1,2.5,1.6,3.8
		c0.9,2.4,4.8,2.2,4.7-0.6c0-0.2,0-0.5,0-0.7c3.4,0.6,7.2,0.2,11.3-1.9C537.3,354.5,537.8,353.2,537.5,352.3z M498.4,324.1
		c-0.1-0.2-0.1-0.4-0.2-0.6c4.7,6.2,9.5,12.2,13.7,18.6C506.9,336,502.5,328.6,498.4,324.1z"/>
	<linearGradient id="SVGID_3_" gradientUnits="userSpaceOnUse" x1="459.4428" y1="434.7441" x2="537.9637" y2="434.7441">
		<stop  offset="0" style="stop-color:#FDFDFE;stop-opacity:0"/>
		<stop  offset="0.9766" style="stop-color:#FDFDFE;stop-opacity:0.9766"/>
		<stop  offset="1" style="stop-color:#FDFDFE"/>
	</linearGradient>
	<ellipse fill="url(#SVGID_3_)" cx="498.7" cy="434.7" rx="39.3" ry="19.9"/>
	<circle fill="none" stroke="#000000" stroke-width="8.5135" cx="498.6" cy="462.8" r="51.1"/>
	<linearGradient id="SVGID_4_" gradientUnits="userSpaceOnUse" x1="269.7845" y1="434.7441" x2="348.3055" y2="434.7441">
		<stop  offset="0" style="stop-color:#FDFDFE;stop-opacity:0"/>
		<stop  offset="0.9766" style="stop-color:#FDFDFE;stop-opacity:0.9766"/>
		<stop  offset="1" style="stop-color:#FDFDFE"/>
	</linearGradient>
	<ellipse fill="url(#SVGID_4_)" cx="309" cy="434.7" rx="39.3" ry="19.9"/>
	<circle fill="none" stroke="#000000" stroke-width="8.5135" cx="311.3" cy="462.8" r="51.1"/>
	<g>
		<path fill-rule="evenodd" clip-rule="evenodd" d="M544.3,46.8c-0.1,0.4,0.6,4.5,0.7,5.2c0.1,1,0.7,4.4,0.7,5.3l-9.3-5l-9.6,4.6
			c0.4-2.2,0.8-4.1,1.1-6.3c0.2-1.1,0.4-2.1,0.6-3.1c0.3-1.6,0-1.3-0.8-2.2c-1.1-1.1-2.1-2.2-3.2-3.3c-1-1.1-2.3-2.3-3.2-3.4
			c1-0.1,10.4-1.4,10.6-1.5c0.2-0.1,4.7-8.5,5-9.2l0.1,0l4.7,9.6l0.1,0l10.3,1.9C551.2,40.5,544.4,46.5,544.3,46.8L544.3,46.8z"/>
		<path d="M533.4,76.4c1.2-0.6,2.2-1.3,3.3-2.1c-11.3-0.2-22.2-6.3-28-16.9c-7.9-14.6-3.6-32.5,9.6-41.9c-5.4-0.1-10.9,1.2-16,4
			c-15.7,8.6-21.5,28.3-12.9,44C498,79.2,517.7,85,533.4,76.4z"/>
	</g>
	<g>
		<g>
			<g>
				<path fill="none" d="M360.7,632.8L360.7,632.8L360.7,632.8z"/>
				<path fill="none" d="M360.5,632.1C360.5,632.1,360.5,632.1,360.5,632.1C360.5,632.1,360.5,632.1,360.5,632.1z"/>
				<path fill="none" d="M360.5,632C360.5,632,360.5,632,360.5,632C360.5,632,360.5,632,360.5,632z"/>
				<path fill="none" d="M360.6,632.5C360.6,632.5,360.6,632.5,360.6,632.5C360.6,632.5,360.6,632.5,360.6,632.5z"/>
				<path fill="none" d="M360.6,632.3C360.6,632.3,360.6,632.3,360.6,632.3C360.6,632.3,360.6,632.3,360.6,632.3z"/>
				<path fill="none" d="M360.5,631.8C360.5,631.9,360.5,631.9,360.5,631.8C360.5,631.9,360.5,631.9,360.5,631.8z"/>
				<path fill="none" d="M425.2,679.8c0,0.2,0,0.4-0.1,0.5C425.2,680.2,425.2,680,425.2,679.8z"/>
				<path fill="none" d="M360.5,631.8C360.5,631.8,360.5,631.8,360.5,631.8C360.5,631.8,360.5,631.8,360.5,631.8z"/>
				<path fill="none" d="M423.7,646.1c0.2-0.3,0.5-0.7,0.8-1C424.2,645.5,424,645.8,423.7,646.1
					C423.7,646.1,423.7,646.1,423.7,646.1z"/>
				<path fill="none" d="M425,681.5c0.1-0.2,0.1-0.4,0.1-0.6C425,681,425,681.2,425,681.5C425,681.5,425,681.5,425,681.5z"/>
				<path fill="none" d="M381.3,649.3c-0.2-0.1-0.5-0.2-0.7-0.3c0.2,0.2,0.4,0.3,0.7,0.5C381.2,649.4,381.3,649.3,381.3,649.3z"/>
				<path fill="#FFFFFF" d="M267.3,688.8C267.3,688.8,267.3,688.8,267.3,688.8c0-0.2-0.1-0.4-0.1-0.6
					C267.3,688.4,267.3,688.6,267.3,688.8z"/>
				<path fill="#FFFFFF" d="M396.1,688.3c-1.7-0.2-3.6-0.5-5.5-1.1c-0.1,0-0.3-0.1-0.4-0.1c-2.4-0.7-4.6-1.9-6.1-3.7
					c-1.2-6.4-1.7-14.1-1.3-22.1c0.1-1.2,0.1-2.4,0.2-3.6c0.5-4.5,1.3-9,2.9-13.3c1.2-3.3,2.8-8,6.5-9.3c0.2-0.1,0.4-0.1,0.6-0.1
					c-0.8,0.1-1.5,0.2-2.3,0.3c-0.7,0.1-1.6,0.3-2.3,0.6c-0.4,0.1-0.7,0.3-1.1,0.5c-0.3,0.2-0.6,0.4-0.8,0.6c0,0-0.5,0.6-0.8,0.9
					c-1.5,2.7-2.6,5.4-3.5,8.1c-4.8-6.1-13.5-15.3-21.7-14.3c0,0,0,0,0,0c0,0,0,0,0,0c0,0,0,0,0,0c0,0,0,0.1,0,0.1c0,0,0,0,0,0
					c0,0,0,0.1,0,0.1c0,0,0,0,0,0c0,0,0,0.1,0,0.2c0,0,0,0,0,0c0,0.1,0,0.1,0.1,0.2c0,0,0,0,0,0c0,0.1,0,0.2,0.1,0.3v0
					c0.7,2.3,3.9,8.2,16.7,14.7c1,0.5,2,1,3.1,1.5c0.2,0.1,0.5,0.2,0.7,0.3c0,0,0,0.1,0,0.2c-0.4,2-1.1,6-1.3,8.1
					c0,0.6-0.1,1.2-0.1,1.8c-7.5-0.7-21.8-0.9-27.1,6c-0.1,0.1-0.2,0.2-0.2,0.3c0,0,7.3,5.3,27.2-3.3c-0.2,6.2,0.1,12.3,0.9,17.6
					c0,0.2,0.1,0.4,0.1,0.5c0,0,0,0,0,0c0,0.1,0.1,0.3,0.1,0.4c0,0.2,0.1,0.4,0.1,0.6c0,0,0,0,0,0c0.1,0.4,0.2,0.9,0.2,1.3
					c0.1,0.1,0.2,0.3,0.4,0.4c0.1,0.2,0.1,0.3,0.2,0.5c0.2,0.3,0.4,0.7,0.7,1c1.2,1.4,2.8,1.9,4.5,2.3c0.6,0.1,1.2,0.3,1.8,0.4
					c2.1,0.6,4.8,0.9,7.7,1c0,0-0.1,0-0.1,0C396.3,688.3,396.1,688.3,396.1,688.3z"/>
				<path fill="#FFFFFF" d="M425.1,680.8c0-0.2,0.1-0.3,0.1-0.5c0-0.2,0.1-0.4,0.1-0.5c0-0.4,0.1-0.8,0.1-1.2
					c0.1-1.2,0.1-2.4,0.1-3.7c0.1-1.1,0.1-2.2,0.1-3.3c0-3-0.1-6-0.3-9c0-0.1,0-0.3,0-0.5c20.8,9.5,27.9,3.5,27.9,3.5
					c-0.1-0.1-0.2-0.2-0.2-0.4c-4.6-7.2-21-6.1-27.9-5.4c-0.1-1.6-0.3-3.4-0.3-3.8c0,0-0.1,0-0.1,0c-0.2-2-0.5-4-0.8-6
					c2.4-1,4.5-2.1,6.3-3.1c14.8-8,15.7-15.4,15.7-15.4c-9.1-1-16.6,7.4-21.4,13.5c-0.3,0.3-0.5,0.7-0.8,1c0,0,0,0,0,0
					c-0.1,0.2-0.3,0.4-0.4,0.5c-0.5-2.5-1.1-5.8-1.7-7.2c-0.6-1.4-1.5-2.4-2.8-3.1c-0.3-0.2-0.6-0.4-1-0.5c-0.1,0-0.2-0.1-0.3-0.1
					c-2.2-0.8-4.6-0.8-6.9-1.2c0,0,0.1,0,0.1,0c1.3,0.4,2.6,0.6,3.7,1.6c3,2.7,3,6.7,3.6,10.4c1,5.7,1.7,11.5,2,17.3
					c0.3,5.3,0.7,11.2-0.4,16.4c-1,5-5.3,7.2-10.2,8.1c2.9-0.1,5.6-0.5,7.7-1.1c0.6-0.2,1.2-0.3,1.8-0.4c1.7-0.4,3.3-0.9,4.5-2.3
					c0.3-0.3,0.5-0.7,0.7-1c0-0.1,0.1-0.1,0.1-0.2c0,0,0.1-0.1,0.1-0.1c0.3-0.6,0.5-1.1,0.6-1.7C425,681.2,425,681,425.1,680.8z"/>
				<path d="M419.6,680.3c1.1-5.2,0.7-11.1,0.4-16.4c-0.3-5.8-1-11.6-2-17.3c-0.7-3.7-0.7-7.7-3.6-10.4c-1-0.9-2.4-1.2-3.7-1.6
					c-2.6-0.3-5.3-0.2-7.8,0c-3.3-0.3-7-0.5-10.1,0.4c-0.2,0.1-0.4,0.1-0.6,0.1c-3.7,1.2-5.3,5.9-6.5,9.3c-1.6,4.3-2.4,8.8-2.9,13.3
					c-0.1,1.2-0.1,2.4-0.2,3.6c-0.4,8,0.1,15.7,1.3,22.1c1.4,1.9,3.7,3,6.1,3.7c0.1,0,0.3,0.1,0.4,0.1c1.9,0.5,3.8,0.9,5.5,1.1
					c0.1,0,0.2,0,0.3,0c0,0,0.1,0,0.1,0c2.1,0.4,4.4,0.5,6.5,0.4c2.1,0,4.4-0.1,6.5-0.4C414.3,687.5,418.6,685.3,419.6,680.3z"/>
				<path fill="#FFFFFF" d="M538.6,688.8c0-0.2,0.1-0.4,0.1-0.6C538.6,688.4,538.6,688.6,538.6,688.8
					C538.6,688.8,538.6,688.8,538.6,688.8z"/>
				<g>
					<defs>
						<path id="SVGID_11_" d="M386.9,689.7c-23.6,29.6-35,70.2-40.6,101.3c-1.2-1.2-2.5-2.4-3.7-3.7l-3.7-3.7c0,0-1.9-1.9-1.9-1.9
							c-4.7-4.5-10.5-10.2-17-11.7c-8.8-2.1-16.7,1.7-24.3,5.3c-3.2,1.5-6.4,3-9.7,4.1c5-20.3,14-36.6,22.9-52.4
							c3.1-5.5,6.1-10.9,9-16.5c0.4,0,0.7-0.1,1.1-0.1c21.7-2.1,42.4-10,62.8-24.1c0.2,0.3,0.4,0.7,0.7,1
							C383.6,688.8,385.2,689.3,386.9,689.7z M423.5,687.4c-1.2,1.4-2.8,1.9-4.5,2.3c23.6,29.6,35,70.2,40.6,101.3
							c1.2-1.2,2.4-2.4,3.7-3.7l3.7-3.7c0,0,1.9-1.9,1.9-1.9c4.7-4.5,10.5-10.2,17-11.7c8.8-2.1,16.7,1.7,24.3,5.3
							c3.2,1.5,6.4,3,9.7,4.1c-5-20.3-14-36.6-22.9-52.4c-3.1-5.5-6.1-10.9-9-16.5c-0.4,0-0.8-0.1-1.1-0.1
							c-21.7-2.1-42.4-10-62.8-24.1C423.9,686.8,423.7,687.1,423.5,687.4z M259.3,629.5l-0.1,1.8c0.2,3.9,2.2,6.9,4.6,10.1
							c0.1,0,0.2,0,0.3,0c2.9,4,7,10.2,7.2,16l-0.1,2.6c-0.4,3.8-1.4,7.2-2.5,10.3c-0.8,2.3-1.5,4.4-1.9,6.6
							c-0.3,1.6-0.4,3.1-0.3,4.6c0.1,1.3,0.4,4.2,0.7,6.1c0,0,0,0,0,0c0,0.2,0.1,0.4,0.1,0.5c0,0.2,0.1,0.4,0.1,0.6
							c0.6,3.1,1.4,6.1,2.5,8.9c0,0,0,0,0,0c0,0,0,0,0,0c0.6,3.9,4.1,6.5,7.6,7.8c3.2,1.2,6.7,1.7,10.1,2.1c2.9,0.3,5.9,0.5,9,0.7
							c4.1,0.2,8.4,0.2,12.7,0.1c3.3-0.1,6.5-0.4,9.7-0.7c21.7-2.1,42.4-10,62.8-24.1c-0.1-0.2-0.1-0.3-0.2-0.5
							c-0.1-0.1-0.3-0.3-0.4-0.4c-0.1-0.4-0.2-0.9-0.2-1.3c0,0,0,0,0,0c0-0.2-0.1-0.4-0.1-0.6c0-0.1-0.1-0.3-0.1-0.4c0,0,0,0,0,0
							c0-0.2-0.1-0.4-0.1-0.5c-0.8-5.3-1.1-11.4-0.9-17.6c-19.9,8.6-27.2,3.3-27.2,3.3c0.1-0.1,0.1-0.2,0.2-0.3
							c5.3-6.9,19.6-6.7,27.1-6c0-0.6,0.1-1.2,0.1-1.8c0.2-2.1,0.9-6.1,1.3-8.1c-0.2-0.2-0.4-0.3-0.7-0.5c-1.1-0.5-2.1-1-3.1-1.5
							c-12.9-6.5-16-12.4-16.7-14.7v0c0-0.1-0.1-0.2-0.1-0.3c0,0,0,0,0,0c0-0.1,0-0.1-0.1-0.2c0,0,0,0,0,0c0-0.1,0-0.1,0-0.2
							c0,0,0,0,0,0c0,0,0-0.1,0-0.1c0,0,0,0,0,0c0,0,0-0.1,0-0.1c0,0,0,0,0,0c0,0,0,0,0,0c0,0,0,0,0,0c8.2-1,16.9,8.3,21.7,14.3
							c0.9-2.8,2-5.4,3.5-8.1c0.3-0.3,0.8-0.9,0.8-0.9c0.2-0.2,0.5-0.4,0.8-0.6c-17.7-17.4-40.1-34.2-76.3-34.1
							C291.8,602.5,261,609.8,259.3,629.5z M546.6,629.5c-1.7-19.7-32.5-27-51.6-27c-36.1-0.1-58.4,16.6-76.1,33.9
							c1.2,0.7,2.2,1.7,2.8,3.1c0.6,1.4,1.2,4.7,1.7,7.2c0.1-0.2,0.3-0.3,0.4-0.5c0.3-0.3,0.5-0.6,0.8-1
							c4.8-6.1,12.3-14.6,21.4-13.5c0,0-0.8,7.4-15.7,15.4c-1.9,1-4,2-6.3,3.1c0.3,2,0.6,4,0.8,6c0,0,0.1,0,0.1,0
							c0,0.4,0.2,2.2,0.3,3.8c6.9-0.7,23.3-1.8,27.9,5.4c0.1,0.1,0.2,0.2,0.2,0.4c0,0-7.1,5.9-27.9-3.5c0,0.2,0,0.4,0,0.5
							c0.2,3,0.3,6,0.3,9c0,1.1,0,2.2-0.1,3.3c-0.1,1.2,0,2.4-0.1,3.7c0,0.4-0.1,0.8-0.1,1.2c0,0.2,0,0.4-0.1,0.5
							c0,0.2-0.1,0.3-0.1,0.5c0,0.2-0.1,0.4-0.1,0.6c0,0,0,0,0,0c-0.1,0.6-0.4,1.2-0.6,1.7c-0.1,0.2-0.1,0.3-0.2,0.5
							c20.4,14.1,41.1,22,62.8,24.1c3.2,0.3,6.4,0.6,9.7,0.7c4.3,0.1,8.6,0.1,12.7-0.1c3.1-0.2,6.1-0.4,9-0.7
							c3.4-0.4,6.9-1,10.1-2.1c3.5-1.3,6.9-3.9,7.6-7.8c0,0,0,0,0,0c0,0,0,0,0,0c1.1-2.8,2-5.8,2.5-8.9c0-0.2,0.1-0.4,0.1-0.6
							c0-0.2,0.1-0.4,0.1-0.5c0,0,0,0,0,0c0.3-1.9,0.6-4.8,0.7-6.1c0.1-1.5,0-3-0.3-4.6c-0.4-2.2-1.1-4.3-1.9-6.6
							c-1.1-3.2-2.1-6.5-2.5-10.3l-0.1-2.6c0.2-5.8,4.2-12,7.2-16c0.1,0,0.2,0,0.2,0c2.4-3.2,4.4-6.2,4.6-10.1L546.6,629.5z"/>
					</defs>
					<use xlink:href="#SVGID_11_"  overflow="visible"/>
					<clipPath id="SVGID_5_">
						<use xlink:href="#SVGID_11_"  overflow="visible"/>
					</clipPath>
					<g clip-path="url(#SVGID_5_)">
						<g>
							<path fill="#33D3D3" d="M473.1,618.5c-3.1,0-5.7,1.8-7.2,4.9c-1.2-2.7-3-4.9-7.3-4.9c-4.6,0-8.2,4.7-8.2,8.7
								c0,11.8,14.6,18.6,15.2,18.9c0.1,0,0.2,0.1,0.3,0.1c0.1,0,0.2,0,0.3-0.1c0.6-0.3,15.3-7.1,15.3-18.9
								C481.3,623.2,477.7,618.5,473.1,618.5z"/>
							<path fill="#33D3D3" d="M548.3,680.9c-3.1,0-5.7,1.8-7.2,4.9c-1.2-2.7-3-4.9-7.3-4.9c-4.6,0-8.2,4.7-8.2,8.7
								c0,11.8,14.6,18.6,15.2,18.9c0.1,0,0.2,0.1,0.3,0.1c0.1,0,0.2,0,0.3-0.1c0.6-0.3,15.3-7.1,15.3-18.9
								C556.6,685.6,553,680.9,548.3,680.9z"/>
							<path fill="#C5D82E" d="M504.3,666.8c-3.1,0-5.7,1.8-7.2,4.9c-1.2-2.7-3-4.9-7.3-4.9c-4.6,0-8.2,4.7-8.2,8.7
								c0,11.8,14.6,18.6,15.2,18.9c0.1,0,0.2,0.1,0.3,0.1c0.1,0,0.2,0,0.3-0.1c0.6-0.3,15.3-7.1,15.3-18.9
								C512.5,671.5,508.9,666.8,504.3,666.8z"/>
							<path fill="#FD57B0" d="M523.8,625.5c-3.1,0-5.7,1.8-7.2,4.9c-1.2-2.7-3-4.9-7.3-4.9c-4.6,0-8.2,4.7-8.2,8.7
								c0,11.8,14.6,18.6,15.2,18.9c0.1,0,0.2,0.1,0.3,0.1c0.1,0,0.2,0,0.3-0.1c0.6-0.3,15.3-7.1,15.3-18.9
								C532,630.2,528.4,625.5,523.8,625.5z"/>
							<path fill="#FD57B0" d="M464.5,667.1c-3.1,0-5.7,1.8-7.2,4.9c-1.2-2.7-3-4.9-7.3-4.9c-4.6,0-8.2,4.7-8.2,8.7
								c0,11.8,14.6,18.6,15.2,18.9c0.1,0,0.2,0.1,0.3,0.1c0.1,0,0.2,0,0.3-0.1c0.6-0.3,15.3-7.1,15.3-18.9
								C472.8,671.8,469.2,667.1,464.5,667.1z"/>
							<path fill="#C5D82E" d="M505.1,583.3c-3.1,0-5.7,1.8-7.2,4.9c-1.2-2.7-3-4.9-7.3-4.9c-4.6,0-8.2,4.7-8.2,8.7
								c0,11.8,14.6,18.6,15.2,18.9c0.1,0,0.2,0.1,0.3,0.1c0.1,0,0.2,0,0.3-0.1c0.6-0.3,15.3-7.1,15.3-18.9
								C513.3,588,509.7,583.3,505.1,583.3z"/>
						</g>
						<g>
							<path fill="#33D3D3" d="M302.9,624.3c-3.1,0-5.7,1.8-7.2,4.9c-1.2-2.7-3-4.9-7.3-4.9c-4.6,0-8.2,4.7-8.2,8.7
								c0,11.8,14.6,18.6,15.2,18.9c0.1,0,0.2,0.1,0.3,0.1c0.1,0,0.2,0,0.3-0.1c0.6-0.3,15.3-7.1,15.3-18.9
								C311.1,629,307.5,624.3,302.9,624.3z"/>
							<path fill="#C5D82E" d="M334.1,672.7c-3.1,0-5.7,1.8-7.2,4.9c-1.2-2.7-3-4.9-7.3-4.9c-4.6,0-8.2,4.7-8.2,8.7
								c0,11.8,14.6,18.6,15.2,18.9c0.1,0,0.2,0.1,0.3,0.1c0.1,0,0.2,0,0.3-0.1c0.6-0.3,15.3-7.1,15.3-18.9
								C342.3,677.4,338.7,672.7,334.1,672.7z"/>
							<path fill="#C5D82E" d="M338.9,589.4c-3.1,0-5.7,1.8-7.2,4.9c-1.2-2.7-3-4.9-7.3-4.9c-4.6,0-8.2,4.7-8.2,8.7
								c0,11.8,14.6,18.6,15.2,18.9c0.1,0,0.2,0.1,0.3,0.1c0.1,0,0.2,0,0.3-0.1c0.6-0.3,15.3-7.1,15.3-18.9
								C347.1,594.1,343.5,589.4,338.9,589.4z"/>
							<path fill="#FD57B0" d="M353.6,631.3c-3.1,0-5.7,1.8-7.2,4.9c-1.2-2.7-3-4.9-7.3-4.9c-4.6,0-8.2,4.7-8.2,8.7
								c0,11.8,14.6,18.6,15.2,18.9c0.1,0,0.2,0.1,0.3,0.1c0.1,0,0.2,0,0.3-0.1c0.6-0.3,15.3-7.1,15.3-18.9
								C361.8,636,358.2,631.3,353.6,631.3z"/>
							<path fill="#FD57B0" d="M283.1,679.4c-3.1,0-5.7,1.8-7.2,4.9c-1.2-2.7-3-4.9-7.3-4.9c-4.6,0-8.2,4.7-8.2,8.7
								c0,11.8,14.6,18.6,15.2,18.9c0.1,0,0.2,0.1,0.3,0.1c0.1,0,0.2,0,0.3-0.1c0.6-0.3,15.3-7.1,15.3-18.9
								C291.3,684.1,287.7,679.4,283.1,679.4z"/>
						</g>
					</g>
				</g>
			</g>
		</g>
		<g>
			<circle fill="#231F20" cx="405.7" cy="716.7" r="9.6"/>
			<circle fill="#231F20" cx="405.7" cy="753.5" r="9.6"/>
		</g>
	</g>
</g>
</svg>
